name rise30.3154peak39.0474fall46.5389.mot
datacolumns 19
datarows 56
range 18.756596 18.848261
endheader
time	ground_force1_vx	ground_force1_vy	ground_force1_vz	ground_force1_px	ground_force1_py	ground_force1_pz	ground_force2_vx	ground_force2_vy	ground_force2_vz	ground_force2_px	ground_force2_py	ground_force2_pz	ground_torque1_x	ground_torque1_y	ground_torque1_z	ground_torque2_x	ground_torque2_y	ground_torque2_z	
18.756596	11.874899	679.289125	37.336465	0.278168	0.000000	0.117346	0.000000	0.000000	0.000000	0.000000	0.000000	0.000000	0.000000	16.262350	0.000000	0.000000	0.000000	0.000000	
18.758270	11.424572	678.441474	37.209360	0.276291	0.000000	0.117383	0.000000	0.000000	0.000000	0.000000	0.000000	0.000000	0.000000	16.205800	0.000000	0.000000	0.000000	0.000000	
18.759929	10.967470	677.675095	37.095137	0.274414	0.000000	0.117419	0.000000	0.000000	0.000000	0.000000	0.000000	0.000000	0.000000	16.160369	0.000000	0.000000	0.000000	0.000000	
18.761596	10.503405	676.990310	36.993645	0.272539	0.000000	0.117456	0.000000	0.000000	0.000000	0.000000	0.000000	0.000000	0.000000	16.126070	0.000000	0.000000	0.000000	0.000000	
18.763263	10.032224	676.387366	36.904708	0.270672	0.000000	0.117494	0.000000	0.000000	0.000000	0.000000	0.000000	0.000000	0.000000	16.102893	0.000000	0.000000	0.000000	0.000000	
18.764929	9.553812	675.866447	36.828128	0.268813	0.000000	0.117530	0.000000	0.000000	0.000000	0.000000	0.000000	0.000000	0.000000	16.090804	0.000000	0.000000	0.000000	0.000000	
18.766604	9.068091	675.427678	36.763689	0.266967	0.000000	0.117566	0.000000	0.000000	0.000000	0.000000	0.000000	0.000000	0.000000	16.089746	0.000000	0.000000	0.000000	0.000000	
18.768262	8.575022	675.071131	36.711157	0.265136	0.000000	0.117601	0.000000	0.000000	0.000000	0.000000	0.000000	0.000000	0.000000	16.099642	0.000000	0.000000	0.000000	0.000000	
18.769933	8.074604	674.796830	36.670281	0.263325	0.000000	0.117635	0.000000	0.000000	0.000000	0.000000	0.000000	0.000000	0.000000	16.120390	0.000000	0.000000	0.000000	0.000000	
18.771599	7.566875	674.604757	36.640792	0.261534	0.000000	0.117668	0.000000	0.000000	0.000000	0.000000	0.000000	0.000000	0.000000	16.151871	0.000000	0.000000	0.000000	0.000000	
18.773270	7.051911	674.494856	36.622411	0.259768	0.000000	0.117699	0.000000	0.000000	0.000000	0.000000	0.000000	0.000000	0.000000	16.193943	0.000000	0.000000	0.000000	0.000000	
18.774930	6.529824	674.467038	36.614845	0.258029	0.000000	0.117728	0.000000	0.000000	0.000000	0.000000	0.000000	0.000000	0.000000	16.246449	0.000000	0.000000	0.000000	0.000000	
18.776600	6.000767	674.521187	36.617791	0.256320	0.000000	0.117755	0.000000	0.000000	0.000000	0.000000	0.000000	0.000000	0.000000	16.309210	0.000000	0.000000	0.000000	0.000000	
18.778265	5.464923	674.657160	36.630935	0.254644	0.000000	0.117779	0.000000	0.000000	0.000000	0.000000	0.000000	0.000000	0.000000	16.382032	0.000000	0.000000	0.000000	0.000000	
18.779932	4.922513	674.874792	36.653957	0.253002	0.000000	0.117800	0.000000	0.000000	0.000000	0.000000	0.000000	0.000000	0.000000	16.464705	0.000000	0.000000	0.000000	0.000000	
18.781598	4.373790	675.173898	36.686531	0.251396	0.000000	0.117819	0.000000	0.000000	0.000000	0.000000	0.000000	0.000000	0.000000	16.557002	0.000000	0.000000	0.000000	0.000000	
18.783268	3.819036	675.554279	36.728324	0.249830	0.000000	0.117834	0.000000	0.000000	0.000000	0.000000	0.000000	0.000000	0.000000	16.658683	0.000000	0.000000	0.000000	0.000000	
18.784929	3.258565	676.015717	36.779001	0.248305	0.000000	0.117846	0.000000	0.000000	0.000000	0.000000	0.000000	0.000000	0.000000	16.769493	0.000000	0.000000	0.000000	0.000000	
18.786601	2.692714	676.557982	36.838226	0.246823	0.000000	0.117854	0.000000	0.000000	0.000000	0.000000	0.000000	0.000000	0.000000	16.889166	0.000000	0.000000	0.000000	0.000000	
18.788261	2.121847	677.180831	36.905659	0.245385	0.000000	0.117859	0.000000	0.000000	0.000000	0.000000	0.000000	0.000000	0.000000	17.017423	0.000000	0.000000	0.000000	0.000000	
18.789929	1.546346	677.884007	36.980964	0.243992	0.000000	0.117860	0.000000	0.000000	0.000000	0.000000	0.000000	0.000000	0.000000	17.153973	0.000000	0.000000	0.000000	0.000000	
18.791596	0.966614	678.667240	37.063804	0.242647	0.000000	0.117856	0.000000	0.000000	0.000000	0.000000	0.000000	0.000000	0.000000	17.298519	0.000000	0.000000	0.000000	0.000000	
18.793261	0.383069	679.530246	37.153848	0.241349	0.000000	0.117849	0.000000	0.000000	0.000000	0.000000	0.000000	0.000000	0.000000	17.450750	0.000000	0.000000	0.000000	0.000000	
18.794929	-0.203858	680.472726	37.250765	0.240100	0.000000	0.117837	0.000000	0.000000	0.000000	0.000000	0.000000	0.000000	0.000000	17.610351	0.000000	0.000000	0.000000	0.000000	
18.796601	-0.793726	681.494363	37.354234	0.238901	0.000000	0.117820	0.000000	0.000000	0.000000	0.000000	0.000000	0.000000	0.000000	17.776998	0.000000	0.000000	0.000000	0.000000	
18.798266	-1.386089	682.594821	37.463937	0.237751	0.000000	0.117799	0.000000	0.000000	0.000000	0.000000	0.000000	0.000000	0.000000	17.950363	0.000000	0.000000	0.000000	0.000000	
18.799932	-1.980497	683.773742	37.579564	0.236651	0.000000	0.117774	0.000000	0.000000	0.000000	0.000000	0.000000	0.000000	0.000000	18.130111	0.000000	0.000000	0.000000	0.000000	
18.801597	-2.576498	685.030745	37.700812	0.235601	0.000000	0.117743	0.000000	0.000000	0.000000	0.000000	0.000000	0.000000	0.000000	18.315903	0.000000	0.000000	0.000000	0.000000	
18.803265	-3.173645	686.365416	37.827389	0.234601	0.000000	0.117709	0.000000	0.000000	0.000000	0.000000	0.000000	0.000000	0.000000	18.507398	0.000000	0.000000	0.000000	0.000000	
18.804932	-3.771495	687.777312	37.959010	0.233650	0.000000	0.117669	0.000000	0.000000	0.000000	0.000000	0.000000	0.000000	0.000000	18.704253	0.000000	0.000000	0.000000	0.000000	
18.806602	-4.369615	689.265951	38.095403	0.232747	0.000000	0.117624	0.000000	0.000000	0.000000	0.000000	0.000000	0.000000	0.000000	18.906121	0.000000	0.000000	0.000000	0.000000	
18.808262	-4.967583	690.830811	38.236303	0.231893	0.000000	0.117575	0.000000	0.000000	0.000000	0.000000	0.000000	0.000000	0.000000	19.112658	0.000000	0.000000	0.000000	0.000000	
18.809928	-5.564990	692.471323	38.381460	0.231085	0.000000	0.117522	0.000000	0.000000	0.000000	0.000000	0.000000	0.000000	0.000000	19.323518	0.000000	0.000000	0.000000	0.000000	
18.811597	-6.161444	694.186866	38.530633	0.230322	0.000000	0.117463	0.000000	0.000000	0.000000	0.000000	0.000000	0.000000	0.000000	19.538357	0.000000	0.000000	0.000000	0.000000	
18.813264	-6.756572	695.976762	38.683595	0.229604	0.000000	0.117401	0.000000	0.000000	0.000000	0.000000	0.000000	0.000000	0.000000	19.756832	0.000000	0.000000	0.000000	0.000000	
18.814931	-7.350023	697.840269	38.840130	0.228929	0.000000	0.117334	0.000000	0.000000	0.000000	0.000000	0.000000	0.000000	0.000000	19.978603	0.000000	0.000000	0.000000	0.000000	
18.816598	-7.941467	699.776580	39.000035	0.228294	0.000000	0.117262	0.000000	0.000000	0.000000	0.000000	0.000000	0.000000	0.000000	20.203334	0.000000	0.000000	0.000000	0.000000	
18.818268	-8.530597	701.784809	39.163120	0.227698	0.000000	0.117187	0.000000	0.000000	0.000000	0.000000	0.000000	0.000000	0.000000	20.430692	0.000000	0.000000	0.000000	0.000000	
18.819933	-9.117136	703.863994	39.329208	0.227140	0.000000	0.117107	0.000000	0.000000	0.000000	0.000000	0.000000	0.000000	0.000000	20.660349	0.000000	0.000000	0.000000	0.000000	
18.821598	-9.700830	706.013084	39.498136	0.226616	0.000000	0.117024	0.000000	0.000000	0.000000	0.000000	0.000000	0.000000	0.000000	20.891981	0.000000	0.000000	0.000000	0.000000	
18.823262	-10.281456	708.230936	39.669753	0.226124	0.000000	0.116937	0.000000	0.000000	0.000000	0.000000	0.000000	0.000000	0.000000	21.125270	0.000000	0.000000	0.000000	0.000000	
18.824931	-10.858816	710.516310	39.843921	0.225663	0.000000	0.116846	0.000000	0.000000	0.000000	0.000000	0.000000	0.000000	0.000000	21.359907	0.000000	0.000000	0.000000	0.000000	
18.826602	-11.432743	712.867862	40.020516	0.225229	0.000000	0.116753	0.000000	0.000000	0.000000	0.000000	0.000000	0.000000	0.000000	21.595585	0.000000	0.000000	0.000000	0.000000	
18.828263	-12.003100	715.284138	40.199426	0.224821	0.000000	0.116656	0.000000	0.000000	0.000000	0.000000	0.000000	0.000000	0.000000	21.832007	0.000000	0.000000	0.000000	0.000000	
18.829936	-12.569777	717.763571	40.380554	0.224435	0.000000	0.116556	0.000000	0.000000	0.000000	0.000000	0.000000	0.000000	0.000000	22.068883	0.000000	0.000000	0.000000	0.000000	
18.831596	-13.132694	720.304472	40.563812	0.224068	0.000000	0.116454	0.000000	0.000000	0.000000	0.000000	0.000000	0.000000	0.000000	22.305932	0.000000	0.000000	0.000000	0.000000	
18.833262	-13.691798	722.905030	40.749127	0.223719	0.000000	0.116350	0.000000	0.000000	0.000000	0.000000	0.000000	0.000000	0.000000	22.542878	0.000000	0.000000	0.000000	0.000000	
18.834929	-14.247065	725.563304	40.936438	0.223384	0.000000	0.116244	0.000000	0.000000	0.000000	0.000000	0.000000	0.000000	0.000000	22.779458	0.000000	0.000000	0.000000	0.000000	
18.836601	-14.798493	728.277221	41.125692	0.223061	0.000000	0.116135	0.000000	0.000000	0.000000	0.000000	0.000000	0.000000	0.000000	23.015415	0.000000	0.000000	0.000000	0.000000	
18.838264	-15.346111	731.044573	41.316853	0.222747	0.000000	0.116026	0.000000	0.000000	0.000000	0.000000	0.000000	0.000000	0.000000	23.250502	0.000000	0.000000	0.000000	0.000000	
18.839936	-15.889965	733.863011	41.509889	0.222439	0.000000	0.115914	0.000000	0.000000	0.000000	0.000000	0.000000	0.000000	0.000000	23.484481	0.000000	0.000000	0.000000	0.000000	
18.841601	-16.430127	736.730047	41.704782	0.222135	0.000000	0.115802	0.000000	0.000000	0.000000	0.000000	0.000000	0.000000	0.000000	23.717123	0.000000	0.000000	0.000000	0.000000	
18.843267	-16.966687	739.643049	41.901522	0.221832	0.000000	0.115690	0.000000	0.000000	0.000000	0.000000	0.000000	0.000000	0.000000	23.948210	0.000000	0.000000	0.000000	0.000000	
18.844932	-17.499752	742.599240	42.100108	0.221527	0.000000	0.115576	0.000000	0.000000	0.000000	0.000000	0.000000	0.000000	0.000000	24.177532	0.000000	0.000000	0.000000	0.000000	
18.846602	-18.029446	745.595701	42.300547	0.221219	0.000000	0.115463	0.000000	0.000000	0.000000	0.000000	0.000000	0.000000	0.000000	24.404889	0.000000	0.000000	0.000000	0.000000	
18.848261	-18.555904	748.629367	42.502851	0.220904	0.000000	0.115349	0.000000	0.000000	0.000000	0.000000	0.000000	0.000000	0.000000	24.630090	0.000000	0.000000	0.000000	0.000000	
